Coordinates
version=1
nRows=21
nColumns=22
inDegrees=yes

Units are S.I. units (second, meters, Newtons, ...)
If the header above contains a line with 'inDegrees', this indicates whether rotational values are in degrees (yes) or radians (no).

endheader
time	pelvis_tilt	pelvis_list	pelvis_rotation	pelvis_tx	pelvis_ty	pelvis_tz	hip_flexion_r	hip_adduction_r	hip_rotation_r	knee_angle_r	ankle_angle_r	subtalar_angle_r	hip_flexion_l	hip_adduction_l	hip_rotation_l	knee_angle_l	ankle_angle_l	subtalar_angle_l	lumbar_extension	lumbar_bending	lumbar_rotation
      6.31000000	      0.34541651	     -3.11803852	    309.53518079	     -0.22560903	      0.99741286	      0.42478401	     20.67080732	      3.65167770	     11.16875765	    -17.81307488	     -0.46400756	     11.29100724	     -9.12168043	      5.04699522	     21.16960449	    -23.90882081	     15.63153409	     -7.52757664	    -14.41884305	      1.20698237	      1.44025879
      6.32000000	      0.26149241	     -3.22776840	    309.89371394	     -0.22201294	      0.99763048	      0.43097593	     20.67670228	      3.84140185	     10.80431508	    -18.64021733	     -0.53107755	     10.90984034	     -9.32429454	      4.80588624	     21.13363180	    -24.36465561	     15.29376209	     -7.15201594	    -14.21737288	      1.48222212	      1.67045616
      6.33000000	      0.16489255	     -3.37889688	    310.22976285	     -0.21834050	      0.99799300	      0.43718197	     20.60890601	      4.04841200	     10.39674492	    -19.39281608	     -0.42378070	     10.57648486	     -9.51297035	      4.53866291	     20.99868189	    -24.88562294	     14.89174382	     -6.76086455	    -14.04243723	      1.80075951	      1.92617794
      6.34000000	      0.06546869	     -3.55834522	    310.54598028	     -0.21462694	      0.99849308	      0.44339292	     20.45545287	      4.26922984	      9.99714936	    -20.04385510	     -0.18099603	     10.24072019	     -9.68078607	      4.25615809	     20.75883315	    -25.46553091	     14.40678549	     -6.32413857	    -13.89223896	      2.14333312	      2.19564008
      6.35000000	     -0.03742212	     -3.75677080	    310.86626983	     -0.21089384	      0.99911413	      0.44956392	     20.21629541	      4.49844525	      9.60727336	    -20.57444060	      0.15793685	      9.90322400	     -9.80588820	      3.95801021	     20.43288395	    -26.12109709	     13.83044667	     -5.87027561	    -13.76281512	      2.50181233	      2.44802682
      6.36000000	     -0.13313627	     -3.95387857	    311.21135572	     -0.20715952	      0.99983543	      0.45562830	     19.89982069	      4.71387663	      9.23543316	    -20.97635561	      0.55396359	      9.52946950	     -9.86158297	      3.66300663	     20.03238222	    -26.87194482	     13.14562759	     -5.37711051	    -13.65068156	      2.85525566	      2.65735892
      6.37000000	     -0.23228826	     -4.14372156	    311.59962880	     -0.20343111	      1.00061947	      0.46154818	     19.53359558	      4.91586402	      8.84030616	    -21.26942133	      0.96851161	      9.14240574	     -9.82740815	      3.36098924	     19.57526358	    -27.72571023	     12.37144214	     -4.89679898	    -13.54383476	      3.21015333	      2.81068204
      6.38000000	     -0.31990930	     -4.30348990	    312.03842297	     -0.19974076	      1.00145132	      0.46727878	     19.12680196	      5.08069257	      8.45669710	    -21.44925023	      1.39836684	      8.71637865	     -9.67945995	      3.07764238	     19.06225992	    -28.69979389	     11.47371408	     -4.38843766	    -13.43899258	      3.53447227	      2.89074885
      6.39000000	     -0.40807371	     -4.44240153	    312.55226060	     -0.19609101	      1.00230850	      0.47276792	     18.69623980	      5.21359141	      8.02639120	    -21.53266243	      1.79066213	      8.30419567	     -9.39744818	      2.78986421	     18.50009012	    -29.82002243	     10.48097504	     -3.91260243	    -13.33911183	      3.84761128	      2.87642320
      6.40000000	     -0.48092241	     -4.54004109	    313.10663075	     -0.19251142	      1.00317169	      0.47803452	     18.27001105	      5.30269157	      7.59483098	    -21.56346461	      2.16591443	      7.85153249	     -8.98724549	      2.52942805	     17.87602080	    -31.06322684	      9.35108657	     -3.36826203	    -13.24197099	      4.11607594	      2.81723846
      6.41000000	     -0.55238576	     -4.61302971	    313.71898809	     -0.18899173	      1.00403042	      0.48306108	     17.84059282	      5.36194358	      7.13463591	    -21.52584823	      2.49883459	      7.43937873	     -8.44348314	      2.26664761	     17.19436085	    -32.44114955	      8.13285479	     -2.83474259	    -13.14885775	      4.36574902	      2.69280808
      6.42000000	     -0.61658797	     -4.63952408	    314.34452658	     -0.18560218	      1.00481455	      0.48788392	     17.45949514	      5.38776889	      6.67539873	    -21.49333553	      2.85602418	      6.96729184	     -7.75405346	      2.02136185	     16.39938535	    -33.95058923	      6.85668618	     -2.14927417	    -13.05442417	      4.56112361	      2.56671421
      6.43000000	     -0.69764364	     -4.66265706	    315.02359492	     -0.18229482	      1.00554527	      0.49246310	     17.09307092	      5.41278174	      6.17402504	    -21.42575310	      3.15931711	      6.57254479	     -6.93119041	      1.73538855	     15.54010122	    -35.59698343	      5.57404160	     -1.48748091	    -12.97235155	      4.76782680	      2.38136591
      6.44000000	     -0.79459698	     -4.67347442	    315.72266870	     -0.17912006	      1.00617615	      0.49683208	     16.76829098	      5.44279336	      5.66720722	    -21.36164917	      3.44677517	      6.20014833	     -5.97403080	      1.41232172	     14.58135075	    -37.36708851	      4.33883679	     -0.76900941	    -12.89845471	      4.96955519	      2.18350900
      6.45000000	     -0.91664449	     -4.68296536	    316.43467859	     -0.17609176	      1.00668931	      0.50102138	     16.48643442	      5.49354020	      5.14423419	    -21.30429484	      3.71379432	      5.85379893	     -4.88877405	      1.02627129	     13.51217887	    -39.24833753	      3.22316097	     -0.01639726	    -12.83083655	      5.17927812	      1.98479183
      6.46000000	     -1.06319586	     -4.68646814	    317.14810745	     -0.17323747	      1.00706971	      0.50505702	     16.25078952	      5.56884729	      4.65482536	    -21.25565995	      3.98610840	      5.51287009	     -3.68131193	      0.57292122	     12.33391992	    -41.22004686	      2.25355162	      0.78579378	    -12.76632080	      5.38813297	      1.78787796
      6.47000000	     -1.24288826	     -4.71704418	    317.85804178	     -0.17055733	      1.00733221	      0.50897766	     16.04763209	      5.69449644	      4.13904881	    -21.21792186	      4.23156672	      5.19881028	     -2.38148002	      0.00328742	     11.03448015	    -43.25458788	      1.50196017	      1.49917128	    -12.71820138	      5.62704436	      1.62452926
      6.48000000	     -1.45007740	     -4.77813106	    318.55381544	     -0.16806929	      1.00749576	      0.51282788	     15.86427950	      5.87685054	      3.63720595	    -21.18170502	      4.46034605	      4.89795786	     -1.01650289	     -0.68866865	      9.63406435	    -45.30998582	      0.96353535	      2.07822602	    -12.69058602	      5.88803676	      1.50203292
      6.49000000	     -1.67914306	     -4.88327400	    319.22595390	     -0.16574396	      1.00760726	      0.51665402	     15.67298644	      6.12270043	      3.14836357	    -21.12287794	      4.65790035	      4.61611970	      0.36905761	     -1.51745593	      8.14388864	    -47.32794553	      0.65603019	      2.43618264	    -12.68931347	      6.17917834	      1.43488852
      6.50000000	     -1.91314602	     -5.02893682	    319.86908100	     -0.16358950	      1.00769847	      0.52048070	     15.46286803	      6.42451338	      2.70621096	    -21.04509640	      4.84801170	      4.33909696	      1.73988309	     -2.46003703	      6.61146726	    -49.26139830	      0.55949272	      2.54106589	    -12.72496393	      6.47935892	      1.42236002
      6.51000000	     -2.14105175	     -5.22610351	    320.47073579	     -0.16155128	      1.00783029	      0.52433657	     15.20504268	      6.78027847	      2.29099879	    -20.92620367	      4.99201134	      4.08607457	      3.04291787	     -3.50968078	      5.05311692	    -51.04916527	      0.70210224	      2.35210075	    -12.80813683	      6.79511448	      1.48905948
